<?xml version="1.0" encoding="UTF-8"?>
<?xml-stylesheet href="https://cdnjs.cloudflare.com/ajax/libs/font-awesome/6.6.0/css/all.min.css" type="text/css"?>
<svg aria-roledescription="mindmap" role="graphics-document document" viewBox="5 5 1052.2044677734375 510.7508850097656" style="max-width: 100%;" xmlns="http://www.w3.org/2000/svg" width="100%" id="graph-div" height="100%" xmlns:xlink="http://www.w3.org/1999/xlink"><style>#graph-div{font-family:"trebuchet ms",verdana,arial,sans-serif;font-size:16px;fill:#333;}#graph-div .error-icon{fill:#552222;}#graph-div .error-text{fill:#552222;stroke:#552222;}#graph-div .edge-thickness-normal{stroke-width:1px;}#graph-div .edge-thickness-thick{stroke-width:3.5px;}#graph-div .edge-pattern-solid{stroke-dasharray:0;}#graph-div .edge-thickness-invisible{stroke-width:0;fill:none;}#graph-div .edge-pattern-dashed{stroke-dasharray:3;}#graph-div .edge-pattern-dotted{stroke-dasharray:2;}#graph-div .marker{fill:#333333;stroke:#333333;}#graph-div .marker.cross{stroke:#333333;}#graph-div svg{font-family:"trebuchet ms",verdana,arial,sans-serif;font-size:16px;}#graph-div p{margin:0;}#graph-div .edge{stroke-width:3;}#graph-div .section--1 rect,#graph-div .section--1 path,#graph-div .section--1 circle,#graph-div .section--1 polygon,#graph-div .section--1 path{fill:hsl(240, 100%, 76.2745098039%);}#graph-div .section--1 text{fill:#ffffff;}#graph-div .node-icon--1{font-size:40px;color:#ffffff;}#graph-div .section-edge--1{stroke:hsl(240, 100%, 76.2745098039%);}#graph-div .edge-depth--1{stroke-width:17;}#graph-div .section--1 line{stroke:hsl(60, 100%, 86.2745098039%);stroke-width:3;}#graph-div .disabled,#graph-div .disabled circle,#graph-div .disabled text{fill:lightgray;}#graph-div .disabled text{fill:#efefef;}#graph-div .section-0 rect,#graph-div .section-0 path,#graph-div .section-0 circle,#graph-div .section-0 polygon,#graph-div .section-0 path{fill:hsl(60, 100%, 73.5294117647%);}#graph-div .section-0 text{fill:black;}#graph-div .node-icon-0{font-size:40px;color:black;}#graph-div .section-edge-0{stroke:hsl(60, 100%, 73.5294117647%);}#graph-div .edge-depth-0{stroke-width:14;}#graph-div .section-0 line{stroke:hsl(240, 100%, 83.5294117647%);stroke-width:3;}#graph-div .disabled,#graph-div .disabled circle,#graph-div .disabled text{fill:lightgray;}#graph-div .disabled text{fill:#efefef;}#graph-div .section-1 rect,#graph-div .section-1 path,#graph-div .section-1 circle,#graph-div .section-1 polygon,#graph-div .section-1 path{fill:hsl(80, 100%, 76.2745098039%);}#graph-div .section-1 text{fill:black;}#graph-div .node-icon-1{font-size:40px;color:black;}#graph-div .section-edge-1{stroke:hsl(80, 100%, 76.2745098039%);}#graph-div .edge-depth-1{stroke-width:11;}#graph-div .section-1 line{stroke:hsl(260, 100%, 86.2745098039%);stroke-width:3;}#graph-div .disabled,#graph-div .disabled circle,#graph-div .disabled text{fill:lightgray;}#graph-div .disabled text{fill:#efefef;}#graph-div .section-2 rect,#graph-div .section-2 path,#graph-div .section-2 circle,#graph-div .section-2 polygon,#graph-div .section-2 path{fill:hsl(270, 100%, 76.2745098039%);}#graph-div .section-2 text{fill:#ffffff;}#graph-div .node-icon-2{font-size:40px;color:#ffffff;}#graph-div .section-edge-2{stroke:hsl(270, 100%, 76.2745098039%);}#graph-div .edge-depth-2{stroke-width:8;}#graph-div .section-2 line{stroke:hsl(90, 100%, 86.2745098039%);stroke-width:3;}#graph-div .disabled,#graph-div .disabled circle,#graph-div .disabled text{fill:lightgray;}#graph-div .disabled text{fill:#efefef;}#graph-div .section-3 rect,#graph-div .section-3 path,#graph-div .section-3 circle,#graph-div .section-3 polygon,#graph-div .section-3 path{fill:hsl(300, 100%, 76.2745098039%);}#graph-div .section-3 text{fill:black;}#graph-div .node-icon-3{font-size:40px;color:black;}#graph-div .section-edge-3{stroke:hsl(300, 100%, 76.2745098039%);}#graph-div .edge-depth-3{stroke-width:5;}#graph-div .section-3 line{stroke:hsl(120, 100%, 86.2745098039%);stroke-width:3;}#graph-div .disabled,#graph-div .disabled circle,#graph-div .disabled text{fill:lightgray;}#graph-div .disabled text{fill:#efefef;}#graph-div .section-4 rect,#graph-div .section-4 path,#graph-div .section-4 circle,#graph-div .section-4 polygon,#graph-div .section-4 path{fill:hsl(330, 100%, 76.2745098039%);}#graph-div .section-4 text{fill:black;}#graph-div .node-icon-4{font-size:40px;color:black;}#graph-div .section-edge-4{stroke:hsl(330, 100%, 76.2745098039%);}#graph-div .edge-depth-4{stroke-width:2;}#graph-div .section-4 line{stroke:hsl(150, 100%, 86.2745098039%);stroke-width:3;}#graph-div .disabled,#graph-div .disabled circle,#graph-div .disabled text{fill:lightgray;}#graph-div .disabled text{fill:#efefef;}#graph-div .section-5 rect,#graph-div .section-5 path,#graph-div .section-5 circle,#graph-div .section-5 polygon,#graph-div .section-5 path{fill:hsl(0, 100%, 76.2745098039%);}#graph-div .section-5 text{fill:black;}#graph-div .node-icon-5{font-size:40px;color:black;}#graph-div .section-edge-5{stroke:hsl(0, 100%, 76.2745098039%);}#graph-div .edge-depth-5{stroke-width:-1;}#graph-div .section-5 line{stroke:hsl(180, 100%, 86.2745098039%);stroke-width:3;}#graph-div .disabled,#graph-div .disabled circle,#graph-div .disabled text{fill:lightgray;}#graph-div .disabled text{fill:#efefef;}#graph-div .section-6 rect,#graph-div .section-6 path,#graph-div .section-6 circle,#graph-div .section-6 polygon,#graph-div .section-6 path{fill:hsl(30, 100%, 76.2745098039%);}#graph-div .section-6 text{fill:black;}#graph-div .node-icon-6{font-size:40px;color:black;}#graph-div .section-edge-6{stroke:hsl(30, 100%, 76.2745098039%);}#graph-div .edge-depth-6{stroke-width:-4;}#graph-div .section-6 line{stroke:hsl(210, 100%, 86.2745098039%);stroke-width:3;}#graph-div .disabled,#graph-div .disabled circle,#graph-div .disabled text{fill:lightgray;}#graph-div .disabled text{fill:#efefef;}#graph-div .section-7 rect,#graph-div .section-7 path,#graph-div .section-7 circle,#graph-div .section-7 polygon,#graph-div .section-7 path{fill:hsl(90, 100%, 76.2745098039%);}#graph-div .section-7 text{fill:black;}#graph-div .node-icon-7{font-size:40px;color:black;}#graph-div .section-edge-7{stroke:hsl(90, 100%, 76.2745098039%);}#graph-div .edge-depth-7{stroke-width:-7;}#graph-div .section-7 line{stroke:hsl(270, 100%, 86.2745098039%);stroke-width:3;}#graph-div .disabled,#graph-div .disabled circle,#graph-div .disabled text{fill:lightgray;}#graph-div .disabled text{fill:#efefef;}#graph-div .section-8 rect,#graph-div .section-8 path,#graph-div .section-8 circle,#graph-div .section-8 polygon,#graph-div .section-8 path{fill:hsl(150, 100%, 76.2745098039%);}#graph-div .section-8 text{fill:black;}#graph-div .node-icon-8{font-size:40px;color:black;}#graph-div .section-edge-8{stroke:hsl(150, 100%, 76.2745098039%);}#graph-div .edge-depth-8{stroke-width:-10;}#graph-div .section-8 line{stroke:hsl(330, 100%, 86.2745098039%);stroke-width:3;}#graph-div .disabled,#graph-div .disabled circle,#graph-div .disabled text{fill:lightgray;}#graph-div .disabled text{fill:#efefef;}#graph-div .section-9 rect,#graph-div .section-9 path,#graph-div .section-9 circle,#graph-div .section-9 polygon,#graph-div .section-9 path{fill:hsl(180, 100%, 76.2745098039%);}#graph-div .section-9 text{fill:black;}#graph-div .node-icon-9{font-size:40px;color:black;}#graph-div .section-edge-9{stroke:hsl(180, 100%, 76.2745098039%);}#graph-div .edge-depth-9{stroke-width:-13;}#graph-div .section-9 line{stroke:hsl(0, 100%, 86.2745098039%);stroke-width:3;}#graph-div .disabled,#graph-div .disabled circle,#graph-div .disabled text{fill:lightgray;}#graph-div .disabled text{fill:#efefef;}#graph-div .section-10 rect,#graph-div .section-10 path,#graph-div .section-10 circle,#graph-div .section-10 polygon,#graph-div .section-10 path{fill:hsl(210, 100%, 76.2745098039%);}#graph-div .section-10 text{fill:black;}#graph-div .node-icon-10{font-size:40px;color:black;}#graph-div .section-edge-10{stroke:hsl(210, 100%, 76.2745098039%);}#graph-div .edge-depth-10{stroke-width:-16;}#graph-div .section-10 line{stroke:hsl(30, 100%, 86.2745098039%);stroke-width:3;}#graph-div .disabled,#graph-div .disabled circle,#graph-div .disabled text{fill:lightgray;}#graph-div .disabled text{fill:#efefef;}#graph-div .section-root rect,#graph-div .section-root path,#graph-div .section-root circle,#graph-div .section-root polygon{fill:hsl(240, 100%, 46.2745098039%);}#graph-div .section-root text{fill:#ffffff;}#graph-div .icon-container{height:100%;display:flex;justify-content:center;align-items:center;}#graph-div .edge{fill:none;}#graph-div .mindmap-node-label{dy:1em;alignment-baseline:middle;text-anchor:middle;dominant-baseline:middle;text-align:center;}#graph-div :root{--mermaid-font-family:"trebuchet ms",verdana,arial,sans-serif;}</style><g></g><g class="mindmap-edges"><path class="edge section-edge-0 edge-depth-1" d="M 648.5958948451556,124.7772254824616 L 612.0830122813602,94.74439155743508 L575.5701297175648,64.71155763240856"></path><path class="edge section-edge-0 edge-depth-1" d="M 674.175763388803,128.90833525692824 L 740.4187924995384,103.36018742516322 L806.6618216102738,77.8120395933982"></path><path class="edge section-edge-0 edge-depth-1" d="M 664.6590836757708,119.99009384760677 L 675.9328866522869,83.95295703961338 L687.206689628803,47.91582023161999"></path><path class="edge section-edge-0 edge-depth-1" d="M 675.1799948184714,134.1774966393941 L 761.0467698999007,133.44235463788695 L846.91354498133,132.7072126363798"></path><path class="edge section-edge-0 edge-depth-0" d="M 537.6886993041666,246.59733162644287 L 593.4061283366091,195.5197344243171 L649.1235573690516,144.44213722219138"></path><path class="edge section-edge-1 edge-depth-1" d="M 282.90760630576733,230.17992275989133 L 226.7786710202962,257.70459518291045 L170.64973573482504,285.2292676059295"></path><path class="edge section-edge-1 edge-depth-1" d="M 281.3899081217842,224.23459797284352 L 193.97755568758765,228.07899062259395 L106.56520325339116,231.92338327234432"></path><path class="edge section-edge-1 edge-depth-1" d="M 282.1999186494875,218.67093614720488 L 210.9427206423847,194.01657359632338 L139.68552263528193,169.36221104544182"></path><path class="edge section-edge-1 edge-depth-1" d="M 289.29907816216127,210.34960064369835 L 275.7054376997107,184.94261102807965 L262.1117972372602,159.53562141246096"></path><path class="edge section-edge-1 edge-depth-0" d="M 511.78486468897097,254.5955376485149 L 411.5035672496036,240.15454551848075 L311.2222698102362,225.71355338844663"></path><path class="edge section-edge-2 edge-depth-1" d="M 383.9988737819532,384.68920876295726 L 305.96216555877066,404.59312600280714 L227.9254573355881,424.497043242657"></path><path class="edge section-edge-2 edge-depth-1" d="M 404.44404101778633,394.76846328552136 L 421.29178020742677,434.0664385295096 L438.1395193970672,473.3644137734978"></path><path class="edge section-edge-2 edge-depth-1" d="M 389.85187446684483,393.214293383501 L 368.72542994489106,422.9809618238578 L347.5989854229373,452.7476302642146"></path><path class="edge section-edge-2 edge-depth-1" d="M 383.59381936889656,379.6386922770324 L 311.0010739202338,373.11141666656613 L238.40832847157105,366.58414105609984"></path><path class="edge section-edge-2 edge-depth-0" d="M 515.8645531112018,267.17713184676853 L 462.58262980173413,318.8577869073169 L409.3007064922665,370.53844196786525"></path><path class="edge section-edge-3 edge-depth-1" d="M 787.7877370628297,270.14503948139037 L 876.4672405581014,262.543568018631 L965.146744053373,254.94209655587161"></path><path class="edge section-edge-3 edge-depth-1" d="M 785.8400380010213,263.938454536083 L 828.9140795584759,239.12413850446222 L871.9881211159305,214.3098224728414"></path><path class="edge section-edge-3 edge-depth-1" d="M 783.4588357385503,282.0230201813282 L 815.2699254115813,313.77600406537215 L847.0810150846123,345.5289879494161"></path><path class="edge section-edge-3 edge-depth-1" d="M 787.4508160307391,274.83175356199695 L 843.5845411186126,287.91823998244524 L899.7182662064861,301.00472640289354"></path><path class="edge section-edge-3 edge-depth-0" d="M 541.6050752264094,257.62708682969765 L 649.7371273998817,264.07983711499634 L757.869179573354,270.53258740029503"></path><path class="edge section-edge-4 edge-depth-1" d="M 374.3519255916494,148.83311164104182 L 317.86011113298787,119.7504606771025 L261.36829667432636,90.66780971316317"></path><path class="edge section-edge-4 edge-depth-1" d="M 382.38193527945447,141.66885602221032 L 370.8636885372493,111.21512767490688 L359.3454417950441,80.76139932760346"></path><path class="edge section-edge-4 edge-depth-1" d="M 402.07979954257047,151.46954429980198 L 457.737619833856,135.1128735936634 L513.3954401251415,118.75620288752484"></path><path class="edge section-edge-4 edge-depth-1" d="M 395.6704758144905,142.9990261319657 L 416.70014548119684,109.53989488526909 L437.7298151479032,76.08076363857246"></path><path class="edge section-edge-4 edge-depth-0" d="M 514.5000473306566,247.91183751864514 L 457.1600501163148,206.21621751366808 L399.820052901973,164.52059750869105"></path><path class="edge section-edge-5 edge-depth-1" d="M 653.0292128777199,236.39329746961099 L 626.2474159582356,213.78478511720138 L599.4656190387512,191.17627276479178"></path><path class="edge section-edge-5 edge-depth-1" d="M 676.5084180471404,237.09222581279676 L 707.0233698474538,214.29728758842288 L737.5383216477671,191.50234936404905"></path><path class="edge section-edge-5 edge-depth-1" d="M 672.2263391317621,258.92095135022345 L 688.9542564197598,286.71393323319603 L705.6821737077574,314.5069151161686"></path><path class="edge section-edge-5 edge-depth-1" d="M 653.1957566946247,255.93902029500777 L 627.1811596595246,278.6702757040201 L601.1665626244245,301.4015311130325"></path><path class="edge section-edge-5 edge-depth-0" d="M 541.5870321540976,255.57666159927973 L 595.561449163796,251.40137978906915 L649.5358661734945,247.2260979788586"></path><path class="edge section-edge-6 edge-depth-1" d="M 403.6938464520909,252.57565931156176 L 429.81219848784997,232.0669756235563 L455.93055052360904,211.55829193555084"></path><path class="edge section-edge-6 edge-depth-1" d="M 383.94613010865675,274.5592776446625 L 370.42686556243694,296.1896027420312 L356.90760101621714,317.8199278393999"></path><path class="edge section-edge-6 edge-depth-1" d="M 403.4755058423925,271.3746220590149 L 432.49890260397456,295.27467769416376 L461.5222993655565,319.17473332931263"></path><path class="edge section-edge-6 edge-depth-1" d="M 377.0690458060183,264.1096580772014 L 327.383303472018,271.71731049399875 L277.69756113801765,279.3249629107961"></path><path class="edge section-edge-6 edge-depth-0" d="M 511.6424709202262,257.30157609387857 L 459.2639790121005,259.2864704544359 L406.8854871039748,261.27136481499326"></path><path class="edge section-edge-7 edge-depth-1" d="M 594.4242110502997,389.3210701143278 L 586.6945009976033,425.97567603281357 L578.9647909449069,462.6302819512993"></path><path class="edge section-edge-7 edge-depth-1" d="M 583.9808917331122,381.1022429597426 L 540.7573378295043,401.72159104901016 L497.5337839258964,422.3409391382777"></path><path class="edge section-edge-7 edge-depth-1" d="M 609.4672191487304,383.7129398599905 L 649.5783849468003,414.1594138917965 L689.6895507448702,444.60588792360244"></path><path class="edge section-edge-7 edge-depth-1" d="M 612.3286421647257,377.0280645439088 L 669.3914725329288,386.2147806792228 L726.4543029011319,395.40149681453687"></path><path class="edge section-edge-7 edge-depth-0" d="M 534.3604839033952,269.5891413681827 L 562.0755229718351,315.6887125616574 L589.790562040275,361.78828375513206"></path></g><g class="mindmap-nodes"><g transform="translate(467.1442129128502, 238.13355476940748)" class="mindmap-node section--1 section-root"><g transform="translate(59.48749923706055, 18.60000076293945)"><circle r="59.48749923706055" class="node-bkg node-circle" id="node-0"></circle></g><g transform="translate(59.48749923706055, 5)" text-anchor="middle" dominant-baseline="middle" alignment-baseline="middle" dy="1em"><g><rect style="stroke: none" class="background"></rect><text style="" y="-10.1"><tspan dy="1.1em" y="-0.1em" x="0" class="text-outer-tspan"><tspan font-weight="normal" class="text-inner-tspan" font-style="normal">LiteFlow</tspan><tspan font-weight="normal" class="text-inner-tspan" font-style="normal"> Docs</tspan></tspan></text></g></g></g><g transform="translate(594.6555429974285, 115.70591255334784)" class="mindmap-node section-0"><g><path d="M0 32.2000015258789 v-27.200001525878903 q0,-5 5,-5 h121.05000305175781 q5,0 5,5 v32.2000015258789 H0 Z" class="node-bkg node-no-border" id="node-1"></path><line y2="37.2000015258789" x2="131.0500030517578" y1="37.2000015258789" x1="0" class="node-line-0"></line></g><g transform="translate(65.5250015258789, 5)" text-anchor="middle" dominant-baseline="middle" alignment-baseline="middle" dy="1em"><g><rect style="stroke: none" class="background"></rect><text style="" y="-10.1"><tspan dy="1.1em" y="-0.1em" x="0" class="text-outer-tspan"><tspan font-weight="normal" class="text-inner-tspan" font-style="normal">Getting</tspan><tspan font-weight="normal" class="text-inner-tspan" font-style="normal"> Started</tspan></tspan></text></g></g></g><g transform="translate(234.7629192975386, 204.97553474167512)" class="mindmap-node section-1"><g><path d="M0 32.2000015258789 v-27.200001525878903 q0,-5 5,-5 h113.22500610351562 q5,0 5,5 v32.2000015258789 H0 Z" class="node-bkg node-no-border" id="node-6"></path><line y2="37.2000015258789" x2="123.22500610351562" y1="37.2000015258789" x1="0" class="node-line-1"></line></g><g transform="translate(61.61250305175781, 5)" text-anchor="middle" dominant-baseline="middle" alignment-baseline="middle" dy="1em"><g><rect style="stroke: none" class="background"></rect><text style="" y="-10.1"><tspan dy="1.1em" y="-0.1em" x="0" class="text-outer-tspan"><tspan font-weight="normal" class="text-inner-tspan" font-style="normal">Core</tspan><tspan font-weight="normal" class="text-inner-tspan" font-style="normal"> Concepts</tspan></tspan></text></g></g></g><g transform="translate(357.50854783502723, 362.38201847302173)" class="mindmap-node section-2"><g><path d="M0 32.19999961853027 v-27.19999961853027 q0,-5 5,-5 h72.04999923706055 q5,0 5,5 v32.19999961853027 H0 Z" class="node-bkg node-no-border" id="node-11"></path><line y2="37.19999961853027" x2="82.04999923706055" y1="37.19999961853027" x1="0" class="node-line-2"></line></g><g transform="translate(41.02499961853027, 5)" text-anchor="middle" dominant-baseline="middle" alignment-baseline="middle" dy="1em"><g><rect style="stroke: none" class="background"></rect><text style="" y="-10.1"><tspan dy="1.1em" y="-0.1em" x="0" class="text-outer-tspan"><tspan font-weight="normal" class="text-inner-tspan" font-style="normal">Features</tspan></tspan></text></g></g></g><g transform="translate(719.9433231369132, 252.8261188883806)" class="mindmap-node section-3"><g><path d="M0 32.19999961853027 v-27.19999961853027 q0,-5 5,-5 h95.7984390258789 q5,0 5,5 v32.19999961853027 H0 Z" class="node-bkg node-no-border" id="node-16"></path><line y2="37.19999961853027" x2="105.7984390258789" y1="37.19999961853027" x1="0" class="node-line-3"></line></g><g transform="translate(52.89921951293945, 5)" text-anchor="middle" dominant-baseline="middle" alignment-baseline="middle" dy="1em"><g><rect style="stroke: none" class="background"></rect><text style="" y="-10.1"><tspan dy="1.1em" y="-0.1em" x="0" class="text-outer-tspan"><tspan font-weight="normal" class="text-inner-tspan" font-style="normal">Deployment</tspan></tspan></text></g></g></g><g transform="translate(327.251666280961, 137.0988787320498)" class="mindmap-node section-4"><g><path d="M0 32.2000015258789 v-27.200001525878903 q0,-5 5,-5 h110.87344360351562 q5,0 5,5 v32.2000015258789 H0 Z" class="node-bkg node-no-border" id="node-21"></path><line y2="37.2000015258789" x2="120.87344360351562" y1="37.2000015258789" x1="0" class="node-line-4"></line></g><g transform="translate(60.43672180175781, 5)" text-anchor="middle" dominant-baseline="middle" alignment-baseline="middle" dy="1em"><g><rect style="stroke: none" class="background"></rect><text style="" y="-10.1"><tspan dy="1.1em" y="-0.1em" x="0" class="text-outer-tspan"><tspan font-weight="normal" class="text-inner-tspan" font-style="normal">API</tspan><tspan font-weight="normal" class="text-inner-tspan" font-style="normal"> Reference</tspan></tspan></text></g></g></g><g transform="translate(630.3661861776814, 227.46920423652625)" class="mindmap-node section-5"><g><path d="M0 32.19999961853027 v-27.19999961853027 q0,-5 5,-5 h58.25 q5,0 5,5 v32.19999961853027 H0 Z" class="node-bkg node-no-border" id="node-26"></path><line y2="37.19999961853027" x2="68.25" y1="37.19999961853027" x1="0" class="node-line-5"></line></g><g transform="translate(34.125, 5)" text-anchor="middle" dominant-baseline="middle" alignment-baseline="middle" dy="1em"><g><rect style="stroke: none" class="background"></rect><text style="" y="-10.1"><tspan dy="1.1em" y="-0.1em" x="0" class="text-outer-tspan"><tspan font-weight="normal" class="text-inner-tspan" font-style="normal">Guides</tspan></tspan></text></g></g></g><g transform="translate(363.65874472988105, 243.23938556725975)" class="mindmap-node section-6"><g><path d="M0 32.19999961853027 v-27.19999961853027 q0,-5 5,-5 h46.47500228881836 q5,0 5,5 v32.19999961853027 H0 Z" class="node-bkg node-no-border" id="node-31"></path><line y2="37.19999961853027" x2="56.47500228881836" y1="37.19999961853027" x1="0" class="node-line-6"></line></g><g transform="translate(28.23750114440918, 5)" text-anchor="middle" dominant-baseline="middle" alignment-baseline="middle" dy="1em"><g><rect style="stroke: none" class="background"></rect><text style="" y="-10.1"><tspan dy="1.1em" y="-0.1em" x="0" class="text-outer-tspan"><tspan font-weight="normal" class="text-inner-tspan" font-style="normal">Tools</tspan></tspan></text></g></g></g><g transform="translate(546.5646447678805, 356.0438697817027)" class="mindmap-node section-7"><g><path d="M0 32.19999961853027 v-27.19999961853027 q0,-5 5,-5 h91.90937805175781 q5,0 5,5 v32.19999961853027 H0 Z" class="node-bkg node-no-border" id="node-36"></path><line y2="37.19999961853027" x2="101.90937805175781" y1="37.19999961853027" x1="0" class="node-line-7"></line></g><g transform="translate(50.954689025878906, 5)" text-anchor="middle" dominant-baseline="middle" alignment-baseline="middle" dy="1em"><g><rect style="stroke: none" class="background"></rect><text style="" y="-10.1"><tspan dy="1.1em" y="-0.1em" x="0" class="text-outer-tspan"><tspan font-weight="normal" class="text-inner-tspan" font-style="normal">Community</tspan></tspan></text></g></g></g><g transform="translate(513.9870402505946, 36.5828690356434)" class="mindmap-node section-0"><g><path d="M0 32.2000015258789 v-27.200001525878903 q0,-5 5,-5 h89.99687957763672 q5,0 5,5 v32.2000015258789 H0 Z" class="node-bkg node-no-border" id="node-2"></path><line y2="37.2000015258789" x2="99.99687957763672" y1="37.2000015258789" x1="0" class="node-line-0"></line></g><g transform="translate(49.99843978881836, 5)" text-anchor="middle" dominant-baseline="middle" alignment-baseline="middle" dy="1em"><g><rect style="stroke: none" class="background"></rect><text style="" y="-10.1"><tspan dy="1.1em" y="-0.1em" x="0" class="text-outer-tspan"><tspan font-weight="normal" class="text-inner-tspan" font-style="normal">Quick</tspan><tspan font-weight="normal" class="text-inner-tspan" font-style="normal"> Start</tspan></tspan></text></g></g></g><g transform="translate(770.4070404757695, 53.814461724774)" class="mindmap-node section-0"><g><path d="M0 32.19999961853027 v-27.19999961853027 q0,-5 5,-5 h90.5 q5,0 5,5 v32.19999961853027 H0 Z" class="node-bkg node-no-border" id="node-3"></path><line y2="37.19999961853027" x2="100.5" y1="37.19999961853027" x1="0" class="node-line-0"></line></g><g transform="translate(50.25, 5)" text-anchor="middle" dominant-baseline="middle" alignment-baseline="middle" dy="1em"><g><rect style="stroke: none" class="background"></rect><text style="" y="-10.1"><tspan dy="1.1em" y="-0.1em" x="0" class="text-outer-tspan"><tspan font-weight="normal" class="text-inner-tspan" font-style="normal">Installation</tspan></tspan></text></g></g></g><g transform="translate(633.141478018327, 15)" class="mindmap-node section-0"><g><path d="M0 32.2000015258789 v-27.200001525878903 q0,-5 5,-5 h107.0875015258789 q5,0 5,5 v32.2000015258789 H0 Z" class="node-bkg node-no-border" id="node-4"></path><line y2="37.2000015258789" x2="117.0875015258789" y1="37.2000015258789" x1="0" class="node-line-0"></line></g><g transform="translate(58.54375076293945, 5)" text-anchor="middle" dominant-baseline="middle" alignment-baseline="middle" dy="1em"><g><rect style="stroke: none" class="background"></rect><text style="" y="-10.1"><tspan dy="1.1em" y="-0.1em" x="0" class="text-outer-tspan"><tspan font-weight="normal" class="text-inner-tspan" font-style="normal">Project</tspan><tspan font-weight="normal" class="text-inner-tspan" font-style="normal"> Setup</tspan></tspan></text></g></g></g><g transform="translate(793.3879937506151, 113.97879519654714)" class="mindmap-node section-0"><g><path d="M0 32.2000015258789 v-27.200001525878903 q0,-5 5,-5 h127.05000305175781 q5,0 5,5 v32.2000015258789 H0 Z" class="node-bkg node-no-border" id="node-5"></path><line y2="37.2000015258789" x2="137.0500030517578" y1="37.2000015258789" x1="0" class="node-line-0"></line></g><g transform="translate(68.5250015258789, 5)" text-anchor="middle" dominant-baseline="middle" alignment-baseline="middle" dy="1em"><g><rect style="stroke: none" class="background"></rect><text style="" y="-10.1"><tspan dy="1.1em" y="-0.1em" x="0" class="text-outer-tspan"><tspan font-weight="normal" class="text-inner-tspan" font-style="normal">First</tspan><tspan font-weight="normal" class="text-inner-tspan" font-style="normal"> Application</tspan></tspan></text></g></g></g><g transform="translate(120.34442007276573, 273.2336550519411)" class="mindmap-node section-1"><g><path d="M0 32.19999961853027 v-27.19999961853027 q0,-5 5,-5 h63.67499923706055 q5,0 5,5 v32.19999961853027 H0 Z" class="node-bkg node-no-border" id="node-7"></path><line y2="37.19999961853027" x2="73.67499923706055" y1="37.19999961853027" x1="0" class="node-line-1"></line></g><g transform="translate(36.83749961853027, 5)" text-anchor="middle" dominant-baseline="middle" alignment-baseline="middle" dy="1em"><g><rect style="stroke: none" class="background"></rect><text style="" y="-10.1"><tspan dy="1.1em" y="-0.1em" x="0" class="text-outer-tspan"><tspan font-weight="normal" class="text-inner-tspan" font-style="normal">Routing</tspan></tspan></text></g></g></g><g transform="translate(15, 213.9824449776338)" class="mindmap-node section-1"><g><path d="M0 32.2000015258789 v-27.200001525878903 q0,-5 5,-5 h143.1593780517578 q5,0 5,5 v32.2000015258789 H0 Z" class="node-bkg node-no-border" id="node-8"></path><line y2="37.2000015258789" x2="153.1593780517578" y1="37.2000015258789" x1="0" class="node-line-1"></line></g><g transform="translate(76.5796890258789, 5)" text-anchor="middle" dominant-baseline="middle" alignment-baseline="middle" dy="1em"><g><rect style="stroke: none" class="background"></rect><text style="" y="-10.1"><tspan dy="1.1em" y="-0.1em" x="0" class="text-outer-tspan"><tspan font-weight="normal" class="text-inner-tspan" font-style="normal">State</tspan><tspan font-weight="normal" class="text-inner-tspan" font-style="normal"> Management</tspan></tspan></text></g></g></g><g transform="translate(65.87251435783628, 145.85761092509267)" class="mindmap-node section-1"><g><path d="M0 32.2000015258789 v-27.200001525878903 q0,-5 5,-5 h109.27500915527344 q5,0 5,5 v32.2000015258789 H0 Z" class="node-bkg node-no-border" id="node-9"></path><line y2="37.2000015258789" x2="119.27500915527344" y1="37.2000015258789" x1="0" class="node-line-1"></line></g><g transform="translate(59.63750457763672, 5)" text-anchor="middle" dominant-baseline="middle" alignment-baseline="middle" dy="1em"><g><rect style="stroke: none" class="background"></rect><text style="" y="-10.1"><tspan dy="1.1em" y="-0.1em" x="0" class="text-outer-tspan"><tspan font-weight="normal" class="text-inner-tspan" font-style="normal">Data</tspan><tspan font-weight="normal" class="text-inner-tspan" font-style="normal"> Fetching</tspan></tspan></text></g></g></g><g transform="translate(209.3667022871856, 127.70968674227959)" class="mindmap-node section-1"><g><path d="M0 32.19999961853027 v-27.19999961853027 q0,-5 5,-5 h81.3375015258789 q5,0 5,5 v32.19999961853027 H0 Z" class="node-bkg node-no-border" id="node-10"></path><line y2="37.19999961853027" x2="91.3375015258789" y1="37.19999961853027" x1="0" class="node-line-1"></line></g><g transform="translate(45.66875076293945, 5)" text-anchor="middle" dominant-baseline="middle" alignment-baseline="middle" dy="1em"><g><rect style="stroke: none" class="background"></rect><text style="" y="-10.1"><tspan dy="1.1em" y="-0.1em" x="0" class="text-outer-tspan"><tspan font-weight="normal" class="text-inner-tspan" font-style="normal">Rendering</tspan></tspan></text></g></g></g><g transform="translate(149.88453137516547, 409.6042339140623)" class="mindmap-node section-2"><g><path d="M0 32.19999961853027 v-27.19999961853027 q0,-5 5,-5 h117.01250457763672 q5,0 5,5 v32.19999961853027 H0 Z" class="node-bkg node-no-border" id="node-12"></path><line y2="37.19999961853027" x2="127.01250457763672" y1="37.19999961853027" x1="0" class="node-line-2"></line></g><g transform="translate(63.50625228881836, 5)" text-anchor="middle" dominant-baseline="middle" alignment-baseline="middle" dy="1em"><g><rect style="stroke: none" class="background"></rect><text style="" y="-10.1"><tspan dy="1.1em" y="-0.1em" x="0" class="text-outer-tspan"><tspan font-weight="normal" class="text-inner-tspan" font-style="normal">Authentication</tspan></tspan></text></g></g></g><g transform="translate(401.2671989354171, 468.5508589674672)" class="mindmap-node section-2"><g><path d="M0 32.19999961853027 v-27.19999961853027 q0,-5 5,-5 h75.56562805175781 q5,0 5,5 v32.19999961853027 H0 Z" class="node-bkg node-no-border" id="node-13"></path><line y2="37.19999961853027" x2="85.56562805175781" y1="37.19999961853027" x1="0" class="node-line-2"></line></g><g transform="translate(42.782814025878906, 5)" text-anchor="middle" dominant-baseline="middle" alignment-baseline="middle" dy="1em"><g><rect style="stroke: none" class="background"></rect><text style="" y="-10.1"><tspan dy="1.1em" y="-0.1em" x="0" class="text-outer-tspan"><tspan font-weight="normal" class="text-inner-tspan" font-style="normal">Database</tspan></tspan></text></g></g></g><g transform="translate(294.8923109103457, 446.37990555616364)" class="mindmap-node section-2"><g><path d="M0 32.19999961853027 v-27.19999961853027 q0,-5 5,-5 h78.05000305175781 q5,0 5,5 v32.19999961853027 H0 Z" class="node-bkg node-no-border" id="node-14"></path><line y2="37.19999961853027" x2="88.05000305175781" y1="37.19999961853027" x1="0" class="node-line-2"></line></g><g transform="translate(44.025001525878906, 5)" text-anchor="middle" dominant-baseline="middle" alignment-baseline="middle" dy="1em"><g><rect style="stroke: none" class="background"></rect><text style="" y="-10.1"><tspan dy="1.1em" y="-0.1em" x="0" class="text-outer-tspan"><tspan font-weight="normal" class="text-inner-tspan" font-style="normal">Payments</tspan></tspan></text></g></g></g><g transform="translate(159.64984809809175, 346.640814287906)" class="mindmap-node section-2"><g><path d="M0 32.2000015258789 v-27.200001525878903 q0,-5 5,-5 h117.63750457763672 q5,0 5,5 v32.2000015258789 H0 Z" class="node-bkg node-no-border" id="node-15"></path><line y2="37.2000015258789" x2="127.63750457763672" y1="37.2000015258789" x1="0" class="node-line-2"></line></g><g transform="translate(63.81875228881836, 5)" text-anchor="middle" dominant-baseline="middle" alignment-baseline="middle" dy="1em"><g><rect style="stroke: none" class="background"></rect><text style="" y="-10.1"><tspan dy="1.1em" y="-0.1em" x="0" class="text-outer-tspan"><tspan font-weight="normal" class="text-inner-tspan" font-style="normal">UI</tspan><tspan font-weight="normal" class="text-inner-tspan" font-style="normal"> Components</tspan></tspan></text></g></g></g><g transform="translate(912.9794392292895, 235.06101657667682)" class="mindmap-node section-3"><g><path d="M0 32.2000015258789 v-27.200001525878903 q0,-5 5,-5 h124.2249984741211 q5,0 5,5 v32.2000015258789 H0 Z" class="node-bkg node-no-border" id="node-17"></path><line y2="37.2000015258789" x2="134.2249984741211" y1="37.2000015258789" x1="0" class="node-line-3"></line></g><g transform="translate(67.11249923706055, 5)" text-anchor="middle" dominant-baseline="middle" alignment-baseline="middle" dy="1em"><g><rect style="stroke: none" class="background"></rect><text style="" y="-10.1"><tspan dy="1.1em" y="-0.1em" x="0" class="text-outer-tspan"><tspan font-weight="normal" class="text-inner-tspan" font-style="normal">Cloud</tspan><tspan font-weight="normal" class="text-inner-tspan" font-style="normal"> Platforms</tspan></tspan></text></g></g></g><g transform="translate(832.4356134153413, 188.22215754833917)" class="mindmap-node section-3"><g><path d="M0 32.2000015258789 v-27.200001525878903 q0,-5 5,-5 h95.10000610351562 q5,0 5,5 v32.2000015258789 H0 Z" class="node-bkg node-no-border" id="node-18"></path><line y2="37.2000015258789" x2="105.10000610351562" y1="37.2000015258789" x1="0" class="node-line-3"></line></g><g transform="translate(52.55000305175781, 5)" text-anchor="middle" dominant-baseline="middle" alignment-baseline="middle" dy="1em"><g><rect style="stroke: none" class="background"></rect><text style="" y="-10.1"><tspan dy="1.1em" y="-0.1em" x="0" class="text-outer-tspan"><tspan font-weight="normal" class="text-inner-tspan" font-style="normal">Self</tspan><tspan font-weight="normal" class="text-inner-tspan" font-style="normal"> Hosting</tspan></tspan></text></g></g></g><g transform="translate(785.2629324103705, 337.52588867015913)" class="mindmap-node section-3"><g><path d="M0 32.2000015258789 v-27.200001525878903 q0,-5 5,-5 h134.8687515258789 q5,0 5,5 v32.2000015258789 H0 Z" class="node-bkg node-no-border" id="node-19"></path><line y2="37.2000015258789" x2="144.8687515258789" y1="37.2000015258789" x1="0" class="node-line-3"></line></g><g transform="translate(72.43437576293945, 5)" text-anchor="middle" dominant-baseline="middle" alignment-baseline="middle" dy="1em"><g><rect style="stroke: none" class="background"></rect><text style="" y="-10.1"><tspan dy="1.1em" y="-0.1em" x="0" class="text-outer-tspan"><tspan font-weight="normal" class="text-inner-tspan" font-style="normal">Edge</tspan><tspan font-weight="normal" class="text-inner-tspan" font-style="normal"> Deployment</tspan></tspan></text></g></g></g><g transform="translate(879.1679454559028, 285.81036145797964)" class="mindmap-node section-3"><g><path d="M0 32.19999961853027 v-27.19999961853027 q0,-5 5,-5 h60.31718826293945 q5,0 5,5 v32.19999961853027 H0 Z" class="node-bkg node-no-border" id="node-20"></path><line y2="37.19999961853027" x2="70.31718826293945" y1="37.19999961853027" x1="0" class="node-line-3"></line></g><g transform="translate(35.15859413146973, 5)" text-anchor="middle" dominant-baseline="middle" alignment-baseline="middle" dy="1em"><g><rect style="stroke: none" class="background"></rect><text style="" y="-10.1"><tspan dy="1.1em" y="-0.1em" x="0" class="text-outer-tspan"><tspan font-weight="normal" class="text-inner-tspan" font-style="normal">Docker</tspan></tspan></text></g></g></g><g transform="translate(208.10058456472666, 65.20204109627628)" class="mindmap-node section-4"><g><path d="M0 32.2000015258789 v-27.200001525878903 q0,-5 5,-5 h69.86249923706055 q5,0 5,5 v32.2000015258789 H0 Z" class="node-bkg node-no-border" id="node-22"></path><line y2="37.2000015258789" x2="79.86249923706055" y1="37.2000015258789" x1="0" class="node-line-4"></line></g><g transform="translate(39.93124961853027, 5)" text-anchor="middle" dominant-baseline="middle" alignment-baseline="middle" dy="1em"><g><rect style="stroke: none" class="background"></rect><text style="" y="-10.1"><tspan dy="1.1em" y="-0.1em" x="0" class="text-outer-tspan"><tspan font-weight="normal" class="text-inner-tspan" font-style="normal">Core</tspan><tspan font-weight="normal" class="text-inner-tspan" font-style="normal"> API</tspan></tspan></text></g></g></g><g transform="translate(309.32648746590087, 48.131375091885054)" class="mindmap-node section-4"><g><path d="M0 32.2000015258789 v-27.200001525878903 q0,-5 5,-5 h79.42500305175781 q5,0 5,5 v32.2000015258789 H0 Z" class="node-bkg node-no-border" id="node-23"></path><line y2="37.2000015258789" x2="89.42500305175781" y1="37.2000015258789" x1="0" class="node-line-4"></line></g><g transform="translate(44.712501525878906, 5)" text-anchor="middle" dominant-baseline="middle" alignment-baseline="middle" dy="1em"><g><rect style="stroke: none" class="background"></rect><text style="" y="-10.1"><tspan dy="1.1em" y="-0.1em" x="0" class="text-outer-tspan"><tspan font-weight="normal" class="text-inner-tspan" font-style="normal">Client</tspan><tspan font-weight="normal" class="text-inner-tspan" font-style="normal"> API</tspan></tspan></text></g></g></g><g transform="translate(481.6993500591143, 95.9268669293981)" class="mindmap-node section-4"><g><path d="M0 32.2000015258789 v-27.200001525878903 q0,-5 5,-5 h82.17500305175781 q5,0 5,5 v32.2000015258789 H0 Z" class="node-bkg node-no-border" id="node-24"></path><line y2="37.2000015258789" x2="92.17500305175781" y1="37.2000015258789" x1="0" class="node-line-4"></line></g><g transform="translate(46.087501525878906, 5)" text-anchor="middle" dominant-baseline="middle" alignment-baseline="middle" dy="1em"><g><rect style="stroke: none" class="background"></rect><text style="" y="-10.1"><tspan dy="1.1em" y="-0.1em" x="0" class="text-outer-tspan"><tspan font-weight="normal" class="text-inner-tspan" font-style="normal">Server</tspan><tspan font-weight="normal" class="text-inner-tspan" font-style="normal"> API</tspan></tspan></text></g></g></g><g transform="translate(419.4681532611446, 44.780910466283785)" class="mindmap-node section-4"><g><path d="M0 32.19999961853027 v-27.19999961853027 q0,-5 5,-5 h42.48749923706055 q5,0 5,5 v32.19999961853027 H0 Z" class="node-bkg node-no-border" id="node-25"></path><line y2="37.19999961853027" x2="52.48749923706055" y1="37.19999961853027" x1="0" class="node-line-4"></line></g><g transform="translate(26.243749618530273, 5)" text-anchor="middle" dominant-baseline="middle" alignment-baseline="middle" dy="1em"><g><rect style="stroke: none" class="background"></rect><text style="" y="-10.1"><tspan dy="1.1em" y="-0.1em" x="0" class="text-outer-tspan"><tspan font-weight="normal" class="text-inner-tspan" font-style="normal">Utils</tspan></tspan></text></g></g></g><g transform="translate(544.1973942129109, 162.90036637934622)" class="mindmap-node section-5"><g><path d="M0 32.19999961853027 v-27.19999961853027 q0,-5 5,-5 h77.61250305175781 q5,0 5,5 v32.19999961853027 H0 Z" class="node-bkg node-no-border" id="node-27"></path><line y2="37.19999961853027" x2="87.61250305175781" y1="37.19999961853027" x1="0" class="node-line-5"></line></g><g transform="translate(43.806251525878906, 5)" text-anchor="middle" dominant-baseline="middle" alignment-baseline="middle" dy="1em"><g><rect style="stroke: none" class="background"></rect><text style="" y="-10.1"><tspan dy="1.1em" y="-0.1em" x="0" class="text-outer-tspan"><tspan font-weight="normal" class="text-inner-tspan" font-style="normal">Migration</tspan></tspan></text></g></g></g><g transform="translate(689.4617997025289, 163.92537036811495)" class="mindmap-node section-5"><g><path d="M0 32.2000015258789 v-27.200001525878903 q0,-5 5,-5 h110.18750762939453 q5,0 5,5 v32.2000015258789 H0 Z" class="node-bkg node-no-border" id="node-28"></path><line y2="37.2000015258789" x2="120.18750762939453" y1="37.2000015258789" x1="0" class="node-line-5"></line></g><g transform="translate(60.093753814697266, 5)" text-anchor="middle" dominant-baseline="middle" alignment-baseline="middle" dy="1em"><g><rect style="stroke: none" class="background"></rect><text style="" y="-10.1"><tspan dy="1.1em" y="-0.1em" x="0" class="text-outer-tspan"><tspan font-weight="normal" class="text-inner-tspan" font-style="normal">Best</tspan><tspan font-weight="normal" class="text-inner-tspan" font-style="normal"> Practices</tspan></tspan></text></g></g></g><g transform="translate(673.9118582933079, 308.7586626113356)" class="mindmap-node section-5"><g><path d="M0 32.19999961853027 v-27.19999961853027 q0,-5 5,-5 h69.01093673706055 q5,0 5,5 v32.19999961853027 H0 Z" class="node-bkg node-no-border" id="node-29"></path><line y2="37.19999961853027" x2="79.01093673706055" y1="37.19999961853027" x1="0" class="node-line-5"></line></g><g transform="translate(39.50546836853027, 5)" text-anchor="middle" dominant-baseline="middle" alignment-baseline="middle" dy="1em"><g><rect style="stroke: none" class="background"></rect><text style="" y="-10.1"><tspan dy="1.1em" y="-0.1em" x="0" class="text-outer-tspan"><tspan font-weight="normal" class="text-inner-tspan" font-style="normal">Security</tspan></tspan></text></g></g></g><g transform="translate(534.377381615489, 292.6713475529838)" class="mindmap-node section-5"><g><path d="M0 32.19999961853027 v-27.19999961853027 q0,-5 5,-5 h100.98750305175781 q5,0 5,5 v32.19999961853027 H0 Z" class="node-bkg node-no-border" id="node-30"></path><line y2="37.19999961853027" x2="110.98750305175781" y1="37.19999961853027" x1="0" class="node-line-5"></line></g><g transform="translate(55.493751525878906, 5)" text-anchor="middle" dominant-baseline="middle" alignment-baseline="middle" dy="1em"><g><rect style="stroke: none" class="background"></rect><text style="" y="-10.1"><tspan dy="1.1em" y="-0.1em" x="0" class="text-outer-tspan"><tspan font-weight="normal" class="text-inner-tspan" font-style="normal">Performance</tspan></tspan></text></g></g></g><g transform="translate(408.0351808255308, 183.69456510764826)" class="mindmap-node section-6"><g><path d="M0 32.2000015258789 v-27.200001525878903 q0,-5 5,-5 h109.38594055175781 q5,0 5,5 v32.2000015258789 H0 Z" class="node-bkg node-no-border" id="node-32"></path><line y2="37.2000015258789" x2="119.38594055175781" y1="37.2000015258789" x1="0" class="node-line-6"></line></g><g transform="translate(59.692970275878906, 5)" text-anchor="middle" dominant-baseline="middle" alignment-baseline="middle" dy="1em"><g><rect style="stroke: none" class="background"></rect><text style="" y="-10.1"><tspan dy="1.1em" y="-0.1em" x="0" class="text-outer-tspan"><tspan font-weight="normal" class="text-inner-tspan" font-style="normal">CLI</tspan><tspan font-weight="normal" class="text-inner-tspan" font-style="normal"> Reference</tspan></tspan></text></g></g></g><g transform="translate(307.9324856320534, 311.93982029827237)" class="mindmap-node section-6"><g><path d="M0 32.19999961853027 v-27.19999961853027 q0,-5 5,-5 h72.04999923706055 q5,0 5,5 v32.19999961853027 H0 Z" class="node-bkg node-no-border" id="node-33"></path><line y2="37.19999961853027" x2="82.04999923706055" y1="37.19999961853027" x1="0" class="node-line-6"></line></g><g transform="translate(41.02499961853027, 5)" text-anchor="middle" dominant-baseline="middle" alignment-baseline="middle" dy="1em"><g><rect style="stroke: none" class="background"></rect><text style="" y="-10.1"><tspan dy="1.1em" y="-0.1em" x="0" class="text-outer-tspan"><tspan font-weight="normal" class="text-inner-tspan" font-style="normal">DevTools</tspan></tspan></text></g></g></g><g transform="translate(437.6078097151285, 310.1099702025375)" class="mindmap-node section-6"><g><path d="M0 32.19999961853027 v-27.19999961853027 q0,-5 5,-5 h60.98749923706055 q5,0 5,5 v32.19999961853027 H0 Z" class="node-bkg node-no-border" id="node-34"></path><line y2="37.19999961853027" x2="70.98749923706055" y1="37.19999961853027" x1="0" class="node-line-6"></line></g><g transform="translate(35.49374961853027, 5)" text-anchor="middle" dominant-baseline="middle" alignment-baseline="middle" dy="1em"><g><rect style="stroke: none" class="background"></rect><text style="" y="-10.1"><tspan dy="1.1em" y="-0.1em" x="0" class="text-outer-tspan"><tspan font-weight="normal" class="text-inner-tspan" font-style="normal">Testing</tspan></tspan></text></g></g></g><g transform="translate(214.6016118326852, 262.9952358022075)" class="mindmap-node section-6"><g><path d="M0 32.19999961853027 v-27.19999961853027 q0,-5 5,-5 h86.5374984741211 q5,0 5,5 v32.19999961853027 H0 Z" class="node-bkg node-no-border" id="node-35"></path><line y2="37.19999961853027" x2="96.5374984741211" y1="37.19999961853027" x1="0" class="node-line-6"></line></g><g transform="translate(48.26874923706055, 5)" text-anchor="middle" dominant-baseline="middle" alignment-baseline="middle" dy="1em"><g><rect style="stroke: none" class="background"></rect><text style="" y="-10.1"><tspan dy="1.1em" y="-0.1em" x="0" class="text-outer-tspan"><tspan font-weight="normal" class="text-inner-tspan" font-style="normal">Monitoring</tspan></tspan></text></g></g></g><g transform="translate(521.1884166755683, 458.7074826653942)" class="mindmap-node section-7"><g><path d="M0 32.19999961853027 v-27.19999961853027 q0,-5 5,-5 h99.36250305175781 q5,0 5,5 v32.19999961853027 H0 Z" class="node-bkg node-no-border" id="node-37"></path><line y2="37.19999961853027" x2="109.36250305175781" y1="37.19999961853027" x1="0" class="node-line-7"></line></g><g transform="translate(54.681251525878906, 5)" text-anchor="middle" dominant-baseline="middle" alignment-baseline="middle" dy="1em"><g><rect style="stroke: none" class="background"></rect><text style="" y="-10.1"><tspan dy="1.1em" y="-0.1em" x="0" class="text-outer-tspan"><tspan font-weight="normal" class="text-inner-tspan" font-style="normal">Contributing</tspan></tspan></text></g></g></g><g transform="translate(436.4531513134914, 410.19931174411306)" class="mindmap-node section-7"><g><path d="M0 32.2000015258789 v-27.200001525878903 q0,-5 5,-5 h85.08438110351562 q5,0 5,5 v32.2000015258789 H0 Z" class="node-bkg node-no-border" id="node-38"></path><line y2="37.2000015258789" x2="95.08438110351562" y1="37.2000015258789" x1="0" class="node-line-7"></line></g><g transform="translate(47.54219055175781, 5)" text-anchor="middle" dominant-baseline="middle" alignment-baseline="middle" dy="1em"><g><rect style="stroke: none" class="background"></rect><text style="" y="-10.1"><tspan dy="1.1em" y="-0.1em" x="0" class="text-outer-tspan"><tspan font-weight="normal" class="text-inner-tspan" font-style="normal">Plugin</tspan><tspan font-weight="normal" class="text-inner-tspan" font-style="normal"> Dev</tspan></tspan></text></g></g></g><g transform="translate(649.2936860998411, 435.0749574296857)" class="mindmap-node section-7"><g><path d="M0 32.2000015258789 v-27.200001525878903 q0,-5 5,-5 h94.6875 q5,0 5,5 v32.2000015258789 H0 Z" class="node-bkg node-no-border" id="node-39"></path><line y2="37.2000015258789" x2="104.6875" y1="37.2000015258789" x1="0" class="node-line-7"></line></g><g transform="translate(52.34375, 5)" text-anchor="middle" dominant-baseline="middle" alignment-baseline="middle" dy="1em"><g><rect style="stroke: none" class="background"></rect><text style="" y="-10.1"><tspan dy="1.1em" y="-0.1em" x="0" class="text-outer-tspan"><tspan font-weight="normal" class="text-inner-tspan" font-style="normal">RFC</tspan><tspan font-weight="normal" class="text-inner-tspan" font-style="normal"> Process</tspan></tspan></text></g></g></g><g transform="translate(698.6761097462193, 379.1856919582127)" class="mindmap-node section-7"><g><path d="M0 32.19999961853027 v-27.19999961853027 q0,-5 5,-5 h75.17500305175781 q5,0 5,5 v32.19999961853027 H0 Z" class="node-bkg node-no-border" id="node-40"></path><line y2="37.19999961853027" x2="85.17500305175781" y1="37.19999961853027" x1="0" class="node-line-7"></line></g><g transform="translate(42.587501525878906, 5)" text-anchor="middle" dominant-baseline="middle" alignment-baseline="middle" dy="1em"><g><rect style="stroke: none" class="background"></rect><text style="" y="-10.1"><tspan dy="1.1em" y="-0.1em" x="0" class="text-outer-tspan"><tspan font-weight="normal" class="text-inner-tspan" font-style="normal">Roadmap</tspan></tspan></text></g></g></g></g></svg>